;Layer: Drill PTH
;EasyEDA v5.9.42, Mon, 13 May 2019 22:36:32 GMT
;18fdc59d78804919a667ee1bdc29a187
;Gerber Generator version 0.2
M48
INCH,LZ,00.0000
;Holesize 1 = 0.012 INCH
T01C0.012
;Holesize 2 = 0.025 INCH
T02C0.025
;Holesize 3 = 0.028 INCH
T03C0.028
%
G05
G90
T01
X+004411Y+007074
X+004411Y+007474
X+030711Y+008874
X+033611Y+008674
X+033311Y+008374
X+032911Y+008074
X+032111Y+007474
X+032111Y+006874
X+033511Y+011274
X+033611Y+010774
X+012411Y+012374
X+013011Y+011674
X+026011Y+011274
X+026011Y+010874
X+025411Y+010474
X+024911Y+010174
X+010811Y+010174
X+018011Y+010674
X+018811Y+010474
X+017511Y+010174
X+009911Y+010474
X+016911Y+010774
X+015911Y+008874
X+009311Y+008874
X+026211Y+009274
X+025011Y+004674
X+025511Y+004674
X+026011Y+004674
X+026511Y+004674
X+027011Y+004674
X+027611Y+004674
X+028111Y+004674
X+028611Y+004674
X+031311Y+007474
X+032511Y+007174
X+013411Y+003474
X+030111Y+010174
X+005111Y+008974
X+013011Y+011074
X+017711Y+008574
X+019411Y+008574
X+025511Y+008274
X+015611Y+008274
X+035211Y+008774
X+034711Y+012274
X+002111Y+008474
X+035311Y+012574
X+008711Y+010674
X+017711Y+007974
X+011151Y+007974
X+015311Y+008574
X+015011Y+009174
X+033311Y+010574
X+010511Y+003474
X+010511Y+003874
X+003511Y+007974
X+003911Y+007974
X+009611Y+011074
X+014811Y+005974
X+015811Y+006174
X+016611Y+006374
X+028711Y+009874
X+028111Y+009874
X+027511Y+009874
X+016811Y+007274
X+034011Y+012674
X+017811Y+009874
X+019711Y+009874
X+016311Y+008874
X+020011Y+008874
X+025411Y+011374
X+019711Y+011374
X+016611Y+012374
X+016351Y+011074
X+034011Y+010474
X+019411Y+007974
X+018411Y+007974
X+036011Y+009174
X+036511Y+012274
X+020311Y+009274
X+020611Y+008974
X+020911Y+008674
X+025111Y+009774
X+025311Y+009474
X+025611Y+009174
X+016111Y+012374
X+011611Y+008574
X+012011Y+009974
X+035611Y+009674
X+036411Y+009674
T02
X+003411Y+010674
X+004411Y+010674
T03
X+038311Y+006374
X+038311Y+006965
M30
