G04 Layer: TopLayer*
G04 EasyEDA v5.9.42, Mon, 13 May 2019 22:36:32 GMT*
G04 18fdc59d78804919a667ee1bdc29a187*
G04 Gerber Generator version 0.2*
G04 Scale: 100 percent, Rotated: No, Reflected: No *
G04 Dimensions in inches *
G04 leading zeros omitted , absolute positions ,2 integer and 4 decimal *
%FSLAX24Y24*%
%MOIN*%
G90*
G70D02*

%ADD10C,0.010000*%
%ADD11C,0.025000*%
%ADD12C,0.015000*%
%ADD13C,0.023622*%
%ADD14C,0.027559*%
%ADD15C,0.024400*%
%ADD16R,0.027560X0.007870*%
%ADD17R,0.039400X0.031500*%
%ADD18R,0.027600X0.059100*%
%ADD19C,0.039370*%
%ADD20C,0.045000*%
%ADD21C,0.030000*%

%LPD*%
G54D10*
G01X18351Y9354D02*
G01X18351Y11694D01*
G01X11651Y9354D02*
G01X11651Y9974D01*
G01X11651Y9974D02*
G01X11651Y11694D01*
G01X11151Y9354D02*
G01X11151Y7974D01*
G01X17351Y11694D02*
G01X17351Y10834D01*
G01X18011Y10174D01*
G01X18111Y10074D01*
G01X18111Y6274D01*
G01X18511Y5874D01*
G01X21211Y5874D01*
G01X22611Y4474D01*
G01X22611Y1600D01*
G01X22637Y1574D01*
G01X18851Y11694D02*
G01X18759Y11694D01*
G01X18802Y11183D01*
G01X19111Y10874D01*
G01X19111Y8774D01*
G01X19111Y8374D01*
G01X19111Y6574D01*
G01X19611Y6074D01*
G01X21311Y6074D01*
G01X23611Y3774D01*
G01X23611Y1584D01*
G01X23621Y1574D01*
G01X19411Y7974D02*
G01X19411Y6674D01*
G01X19411Y6674D01*
G01X19811Y6274D01*
G01X21411Y6274D01*
G01X24611Y3074D01*
G01X24605Y1574D01*
G01X25590Y1574D02*
G01X25611Y3174D01*
G01X25411Y3474D01*
G01X24511Y3474D01*
G01X21511Y6474D01*
G01X20111Y6474D01*
G01X19711Y6874D01*
G01X19711Y9874D01*
G01X26574Y1574D02*
G01X26611Y1574D01*
G01X26611Y3374D01*
G01X26311Y3674D01*
G01X24611Y3674D01*
G01X21611Y6674D01*
G01X20411Y6674D01*
G01X20011Y7074D01*
G01X20011Y8874D01*
G01X5141Y7474D02*
G01X4411Y7474D01*
G01X34646Y8415D02*
G01X33870Y8415D01*
G01X33611Y8674D01*
G01X34646Y8218D02*
G01X33467Y8218D01*
G01X33311Y8374D01*
G01X34646Y8021D02*
G01X32964Y8021D01*
G01X32911Y8074D01*
G01X34646Y7627D02*
G01X32264Y7627D01*
G01X32111Y7474D01*
G01X34646Y10974D02*
G01X33811Y10974D01*
G01X33511Y11274D01*
G01X34646Y10778D02*
G01X33614Y10778D01*
G01X33611Y10774D01*
G01X12651Y11694D02*
G01X12991Y11694D01*
G01X13011Y11674D01*
G01X26811Y10974D02*
G01X26311Y10974D01*
G01X26011Y11274D01*
G01X26811Y10383D02*
G01X25502Y10383D01*
G01X25411Y10474D01*
G01X26811Y10187D02*
G01X24924Y10187D01*
G01X24911Y10174D01*
G01X10151Y9354D02*
G01X10151Y8934D01*
G01X10311Y8774D01*
G01X10911Y8774D01*
G01X11011Y8774D01*
G01X11151Y8994D01*
G01X10651Y9354D02*
G01X10651Y10014D01*
G01X10811Y10174D01*
G01X17851Y11694D02*
G01X17851Y10834D01*
G01X18011Y10674D01*
G01X18851Y9354D02*
G01X18851Y10434D01*
G01X18811Y10474D01*
G01X16851Y9354D02*
G01X16851Y9034D01*
G01X17011Y8874D01*
G01X17711Y8874D01*
G01X17811Y8974D01*
G01X17811Y9314D01*
G01X17851Y9354D01*
G01X17351Y9354D02*
G01X17351Y10014D01*
G01X17511Y10174D01*
G01X9651Y9354D02*
G01X9651Y10214D01*
G01X9911Y10474D01*
G01X17351Y11694D02*
G01X17351Y11214D01*
G01X16911Y10774D01*
G01X9151Y9354D02*
G01X9151Y9034D01*
G01X9311Y8874D01*
G01X15851Y9354D02*
G01X15851Y8934D01*
G01X15911Y8874D01*
G01X26811Y9399D02*
G01X26336Y9399D01*
G01X26211Y9274D01*
G01X26811Y8415D02*
G01X30129Y8415D01*
G01X30611Y7933D01*
G01X30611Y6474D01*
G01X30011Y5874D01*
G01X29311Y5874D01*
G01X28111Y4733D01*
G01X26811Y8218D02*
G01X29967Y8218D01*
G01X30411Y7774D01*
G01X30411Y6574D01*
G01X29911Y6074D01*
G01X29011Y6074D01*
G01X27611Y4674D01*
G01X26811Y8021D02*
G01X29864Y8021D01*
G01X30211Y7674D01*
G01X30211Y6674D01*
G01X29811Y6274D01*
G01X28611Y6274D01*
G01X27011Y4674D01*
G01X26811Y7825D02*
G01X29761Y7825D01*
G01X30011Y7574D01*
G01X30011Y6774D01*
G01X29711Y6474D01*
G01X28311Y6474D01*
G01X26511Y4674D01*
G01X26811Y7628D02*
G01X29558Y7628D01*
G01X29811Y7374D01*
G01X29811Y6874D01*
G01X29611Y6674D01*
G01X28011Y6674D01*
G01X26011Y4674D01*
G01X26811Y7431D02*
G01X29355Y7431D01*
G01X29511Y7274D01*
G01X29511Y6974D01*
G01X29411Y6874D01*
G01X27711Y6874D01*
G01X25511Y4674D01*
G01X26811Y7234D02*
G01X26811Y6474D01*
G01X25011Y4674D01*
G01X26811Y8612D02*
G01X30273Y8612D01*
G01X30811Y8074D01*
G01X30811Y6374D01*
G01X30111Y5674D01*
G01X29611Y5674D01*
G01X29511Y5574D01*
G01X28611Y4674D01*
G01X34646Y7431D02*
G01X32768Y7431D01*
G01X32511Y7174D01*
G01X34646Y7234D02*
G01X34646Y7009D01*
G01X34511Y6874D01*
G01X32111Y6874D01*
G01X34646Y7824D02*
G01X31561Y7824D01*
G01X31311Y7574D01*
G01X31311Y7474D01*
G01X35311Y12574D02*
G01X35311Y12934D01*
G01X34646Y9990D02*
G01X30295Y9990D01*
G01X30111Y10174D01*
G01X34746Y9203D02*
G01X28811Y9203D01*
G01X28811Y9203D02*
G01X26911Y9203D01*
G01X26811Y8809D02*
G01X27118Y8809D01*
G01X27511Y9203D01*
G01X34646Y8612D02*
G01X34273Y8612D01*
G01X33911Y8974D01*
G01X30811Y8974D01*
G01X30711Y8874D01*
G01X34646Y9006D02*
G01X34646Y8809D01*
G01X34646Y8809D02*
G01X35211Y8809D01*
G01X35211Y8774D01*
G01X34646Y9202D02*
G01X34674Y9174D01*
G01X36011Y9174D01*
G54D11*
G01X8858Y1574D02*
G01X8858Y5128D01*
G01X8111Y5974D01*
G01X2311Y5974D01*
G01X1811Y6474D01*
G01X1811Y8174D01*
G01X2111Y8474D01*
G01X2761Y8474D01*
G54D12*
G01X2761Y8474D02*
G01X2761Y9024D01*
G01X4411Y10674D01*
G01X5141Y8474D02*
G01X5141Y8944D01*
G01X5111Y8974D01*
G01X9151Y11694D02*
G01X9151Y11114D01*
G01X8711Y10674D01*
G54D10*
G01X16351Y11694D02*
G01X16351Y11074D01*
G01X19351Y9354D02*
G01X19351Y8634D01*
G01X19411Y8574D01*
G01X26811Y10777D02*
G01X26108Y10777D01*
G01X26011Y10874D01*
G01X26811Y8809D02*
G01X26046Y8809D01*
G01X25511Y8274D01*
G01X26811Y9203D02*
G01X26672Y9203D01*
G01X26278Y8809D01*
G54D11*
G01X30511Y1574D02*
G01X30511Y5274D01*
G01X31311Y6074D01*
G01X37811Y6074D01*
G01X38311Y6374D01*
G54D10*
G01X34711Y12274D02*
G01X34711Y13024D01*
G01X34721Y13034D01*
G01X17711Y7974D02*
G01X17711Y6274D01*
G01X18311Y5674D01*
G01X21111Y5674D01*
G01X21611Y5174D01*
G01X21611Y1616D01*
G01X21653Y1574D01*
G01X15311Y8574D02*
G01X15311Y8074D01*
G01X15411Y7974D01*
G01X17011Y7974D01*
G01X17111Y7974D01*
G01X17311Y7774D01*
G01X17311Y6274D01*
G01X18111Y5474D01*
G01X20311Y5474D01*
G01X20711Y5074D01*
G01X20711Y1614D01*
G01X20669Y1574D01*
G01X15011Y9174D02*
G01X15011Y7974D01*
G01X15211Y7774D01*
G01X17011Y7774D01*
G01X17111Y7674D01*
G01X17111Y6174D01*
G01X18011Y5274D01*
G01X19411Y5274D01*
G01X19711Y4974D01*
G01X19711Y1601D01*
G01X19684Y1574D01*
G01X16611Y6374D02*
G01X16611Y1695D01*
G01X16732Y1574D01*
G01X15811Y6174D02*
G01X15811Y1638D01*
G01X15747Y1574D01*
G01X14811Y5974D02*
G01X14811Y1622D01*
G01X14763Y1574D01*
G01X10826Y1574D02*
G01X10826Y3159D01*
G01X10511Y3474D01*
G01X2761Y7974D02*
G01X3511Y7974D01*
G01X3911Y7974D02*
G01X5141Y7974D01*
G01X11811Y1574D02*
G01X11811Y3475D01*
G01X11211Y3874D01*
G01X10511Y3874D01*
G54D12*
G01X9611Y11074D02*
G01X9611Y11654D01*
G01X9651Y11694D01*
G54D10*
G01X34646Y9793D02*
G01X28792Y9793D01*
G01X28711Y9874D01*
G01X34646Y9596D02*
G01X28389Y9596D01*
G01X28111Y9874D01*
G01X34646Y9400D02*
G01X27986Y9400D01*
G01X27511Y9874D01*
G01X17716Y1574D02*
G01X17711Y5274D01*
G01X16911Y6074D01*
G01X16911Y7174D01*
G01X16811Y7274D01*
G01X34011Y12674D02*
G01X34371Y13034D01*
G01X34721Y13034D01*
G01X17851Y9354D02*
G01X17851Y9834D01*
G01X17811Y9874D01*
G01X16311Y8874D02*
G01X16351Y8914D01*
G01X16351Y9354D01*
G01X19351Y11694D02*
G01X19391Y11694D01*
G01X19711Y11374D01*
G01X16351Y11694D02*
G01X16351Y12114D01*
G01X16611Y12374D01*
G01X13411Y3474D02*
G01X13511Y3474D01*
G01X13711Y3274D01*
G01X13711Y1642D01*
G01X13779Y1574D01*
G01X34646Y10384D02*
G01X34421Y10384D01*
G01X34211Y10174D01*
G01X33711Y10174D01*
G01X33311Y10574D01*
G01X34646Y10581D02*
G01X34118Y10581D01*
G01X34011Y10474D01*
G01X18411Y7974D02*
G01X18351Y8034D01*
G01X18351Y9354D01*
G01X16851Y11694D02*
G01X16851Y12114D01*
G01X17111Y12274D01*
G01X18611Y12274D01*
G01X18851Y12034D01*
G01X18851Y11694D01*
G01X36501Y13034D02*
G01X36501Y12284D01*
G01X36511Y12274D01*
G01X26811Y9990D02*
G01X25327Y9990D01*
G01X25111Y9774D01*
G01X26811Y9793D02*
G01X25630Y9793D01*
G01X25311Y9474D01*
G01X26811Y9596D02*
G01X26033Y9596D01*
G01X25611Y9174D01*
G01X20311Y9274D02*
G01X20311Y7274D01*
G01X20711Y6874D01*
G01X21711Y6874D01*
G01X24711Y3874D01*
G01X27211Y3874D01*
G01X27511Y3574D01*
G01X27511Y1624D01*
G01X27558Y1574D01*
G01X20611Y8974D02*
G01X20611Y7474D01*
G01X21011Y7074D01*
G01X21811Y7074D01*
G01X24811Y4074D01*
G01X28111Y4074D01*
G01X28511Y3674D01*
G01X28511Y1606D01*
G01X28543Y1574D01*
G01X20911Y8674D02*
G01X20911Y7674D01*
G01X21311Y7274D01*
G01X21911Y7274D01*
G01X24911Y4274D01*
G01X28911Y4274D01*
G01X29511Y3674D01*
G01X29511Y1594D01*
G01X29527Y1574D01*
G01X26811Y10581D02*
G01X25905Y10581D01*
G01X25411Y11074D01*
G01X25411Y11374D01*
G01X15851Y9354D02*
G01X15851Y10414D01*
G01X16111Y10674D01*
G01X16111Y12374D01*
G01X12151Y9354D02*
G01X12151Y9714D01*
G01X12411Y9974D01*
G01X12411Y12374D01*
G01X12651Y9354D02*
G01X12651Y9414D01*
G01X13011Y9774D01*
G01X13011Y11074D01*
G01X11651Y9354D02*
G01X11651Y8614D01*
G01X11611Y8574D01*
G01X12011Y9974D02*
G01X12151Y10114D01*
G01X12151Y11694D01*
G01X35611Y9674D02*
G01X36411Y9674D01*
G01X15851Y11694D02*
G01X15851Y10814D01*
G01X15611Y10574D01*
G01X15611Y9374D01*
G01X15611Y8274D01*
G01X5141Y6974D02*
G01X4511Y6974D01*
G01X4411Y7074D01*
G01X16351Y11074D02*
G01X16351Y10334D01*
G01X16611Y10074D01*
G01X16611Y8774D01*
G01X16811Y8574D01*
G01X17711Y8574D01*
G54D13*
G01X19351Y11458D02*
G01X19351Y11931D01*
G01X18851Y11458D02*
G01X18851Y11931D01*
G01X18351Y11458D02*
G01X18351Y11931D01*
G01X17851Y11458D02*
G01X17851Y11931D01*
G01X17351Y11458D02*
G01X17351Y11931D01*
G01X16851Y11458D02*
G01X16851Y11931D01*
G01X16351Y11458D02*
G01X16351Y11931D01*
G01X15851Y11458D02*
G01X15851Y11931D01*
G01X19351Y9118D02*
G01X19351Y9591D01*
G01X18851Y9118D02*
G01X18851Y9591D01*
G01X18351Y9118D02*
G01X18351Y9591D01*
G01X17851Y9118D02*
G01X17851Y9591D01*
G01X17351Y9118D02*
G01X17351Y9591D01*
G01X16851Y9118D02*
G01X16851Y9591D01*
G01X16351Y9118D02*
G01X16351Y9591D01*
G01X15851Y9118D02*
G01X15851Y9591D01*
G01X12651Y11458D02*
G01X12651Y11931D01*
G01X12151Y11458D02*
G01X12151Y11931D01*
G01X11651Y11458D02*
G01X11651Y11931D01*
G01X11151Y11458D02*
G01X11151Y11931D01*
G01X10651Y11458D02*
G01X10651Y11931D01*
G01X10151Y11458D02*
G01X10151Y11931D01*
G01X9651Y11458D02*
G01X9651Y11931D01*
G01X9151Y11458D02*
G01X9151Y11931D01*
G01X12651Y9118D02*
G01X12651Y9591D01*
G01X12151Y9118D02*
G01X12151Y9591D01*
G01X11651Y9118D02*
G01X11651Y9591D01*
G01X11151Y9118D02*
G01X11151Y9591D01*
G01X10651Y9118D02*
G01X10651Y9591D01*
G01X10151Y9118D02*
G01X10151Y9591D01*
G01X9651Y9118D02*
G01X9651Y9591D01*
G01X9151Y9118D02*
G01X9151Y9591D01*
G54D14*
G01X2466Y8474D02*
G01X3056Y8474D01*
G01X2466Y7974D02*
G01X3056Y7974D01*
G01X2466Y7474D02*
G01X3056Y7474D01*
G01X2466Y6974D02*
G01X3056Y6974D01*
G01X4846Y8474D02*
G01X5436Y8474D01*
G01X4846Y7974D02*
G01X5436Y7974D01*
G01X4846Y7474D02*
G01X5436Y7474D01*
G01X4846Y6974D02*
G01X5436Y6974D01*
G54D16*
G01X26811Y10974D03*
G01X26811Y10778D03*
G01X26811Y10581D03*
G01X26811Y10384D03*
G01X26811Y10187D03*
G01X26811Y9990D03*
G01X26811Y9793D03*
G01X26811Y9596D03*
G01X26811Y9400D03*
G01X26811Y9203D03*
G01X26811Y9006D03*
G01X26811Y8809D03*
G01X26811Y8612D03*
G01X26811Y8415D03*
G01X26811Y8218D03*
G01X26811Y8022D03*
G01X26811Y7825D03*
G01X26811Y7628D03*
G01X26811Y7431D03*
G01X26811Y7234D03*
G01X34646Y7234D03*
G01X34646Y7431D03*
G01X34646Y7628D03*
G01X34646Y7825D03*
G01X34646Y8022D03*
G01X34646Y8218D03*
G01X34646Y8415D03*
G01X34646Y8612D03*
G01X34646Y8809D03*
G01X34646Y9006D03*
G01X34646Y9203D03*
G01X34646Y9400D03*
G01X34646Y9596D03*
G01X34646Y9793D03*
G01X34646Y9990D03*
G01X34646Y10187D03*
G01X34646Y10384D03*
G01X34646Y10581D03*
G01X34646Y10778D03*
G01X34646Y10974D03*
G36*
G01X30167Y2981D02*
G01X30856Y2981D01*
G01X30856Y166D01*
G01X30167Y166D01*
G01X30167Y2981D01*
G37*
G36*
G01X29182Y2981D02*
G01X29871Y2981D01*
G01X29871Y166D01*
G01X29182Y166D01*
G01X29182Y2981D01*
G37*
G36*
G01X28198Y2981D02*
G01X28887Y2981D01*
G01X28887Y166D01*
G01X28198Y166D01*
G01X28198Y2981D01*
G37*
G36*
G01X27214Y2981D02*
G01X27903Y2981D01*
G01X27903Y166D01*
G01X27214Y166D01*
G01X27214Y2981D01*
G37*
G36*
G01X26230Y2981D02*
G01X26919Y2981D01*
G01X26919Y166D01*
G01X26230Y166D01*
G01X26230Y2981D01*
G37*
G36*
G01X25245Y2981D02*
G01X25934Y2981D01*
G01X25934Y166D01*
G01X25245Y166D01*
G01X25245Y2981D01*
G37*
G36*
G01X24261Y2981D02*
G01X24950Y2981D01*
G01X24950Y166D01*
G01X24261Y166D01*
G01X24261Y2981D01*
G37*
G36*
G01X23277Y2981D02*
G01X23966Y2981D01*
G01X23966Y166D01*
G01X23277Y166D01*
G01X23277Y2981D01*
G37*
G36*
G01X22293Y2981D02*
G01X22982Y2981D01*
G01X22982Y166D01*
G01X22293Y166D01*
G01X22293Y2981D01*
G37*
G36*
G01X21308Y2981D02*
G01X21997Y2981D01*
G01X21997Y166D01*
G01X21308Y166D01*
G01X21308Y2981D01*
G37*
G36*
G01X20324Y2981D02*
G01X21013Y2981D01*
G01X21013Y166D01*
G01X20324Y166D01*
G01X20324Y2981D01*
G37*
G36*
G01X19340Y2981D02*
G01X20029Y2981D01*
G01X20029Y166D01*
G01X19340Y166D01*
G01X19340Y2981D01*
G37*
G36*
G01X18356Y2981D02*
G01X19045Y2981D01*
G01X19045Y166D01*
G01X18356Y166D01*
G01X18356Y2981D01*
G37*
G36*
G01X17371Y2981D02*
G01X18060Y2981D01*
G01X18060Y166D01*
G01X17371Y166D01*
G01X17371Y2981D01*
G37*
G36*
G01X16387Y2981D02*
G01X17076Y2981D01*
G01X17076Y166D01*
G01X16387Y166D01*
G01X16387Y2981D01*
G37*
G36*
G01X15403Y2981D02*
G01X16092Y2981D01*
G01X16092Y166D01*
G01X15403Y166D01*
G01X15403Y2981D01*
G37*
G36*
G01X14419Y2981D02*
G01X15108Y2981D01*
G01X15108Y166D01*
G01X14419Y166D01*
G01X14419Y2981D01*
G37*
G36*
G01X13434Y2981D02*
G01X14123Y2981D01*
G01X14123Y166D01*
G01X13434Y166D01*
G01X13434Y2981D01*
G37*
G36*
G01X12450Y2981D02*
G01X13139Y2981D01*
G01X13139Y166D01*
G01X12450Y166D01*
G01X12450Y2981D01*
G37*
G36*
G01X11466Y2981D02*
G01X12155Y2981D01*
G01X12155Y166D01*
G01X11466Y166D01*
G01X11466Y2981D01*
G37*
G36*
G01X10482Y2981D02*
G01X11171Y2981D01*
G01X11171Y166D01*
G01X10482Y166D01*
G01X10482Y2981D01*
G37*
G36*
G01X9497Y2981D02*
G01X10186Y2981D01*
G01X10186Y166D01*
G01X9497Y166D01*
G01X9497Y2981D01*
G37*
G36*
G01X8513Y2981D02*
G01X9202Y2981D01*
G01X9202Y166D01*
G01X8513Y166D01*
G01X8513Y2981D01*
G37*
G54D17*
G01X37071Y14204D03*
G01X37071Y13344D03*
G01X34151Y13344D03*
G01X34151Y14204D03*
G54D18*
G01X36501Y13034D03*
G01X35311Y13034D03*
G01X34721Y13034D03*
G54D19*
G01X38311Y6374D03*
G01X38311Y6965D03*
G54D20*
G01X3411Y10674D03*
G01X4411Y10674D03*
G54D21*
G01X35011Y13674D03*
G01X36211Y13674D03*
G01X31911Y4774D03*
G01X33111Y4774D03*
G54D15*
G01X4411Y7074D03*
G01X4411Y7474D03*
G01X30711Y8874D03*
G01X33611Y8674D03*
G01X33311Y8374D03*
G01X32911Y8074D03*
G01X32111Y7474D03*
G01X32111Y6874D03*
G01X33511Y11274D03*
G01X33611Y10774D03*
G01X12411Y12374D03*
G01X13011Y11674D03*
G01X26011Y11274D03*
G01X26011Y10874D03*
G01X25411Y10474D03*
G01X24911Y10174D03*
G01X10811Y10174D03*
G01X18011Y10674D03*
G01X18811Y10474D03*
G01X17511Y10174D03*
G01X9911Y10474D03*
G01X16911Y10774D03*
G01X15911Y8874D03*
G01X9311Y8874D03*
G01X26211Y9274D03*
G01X25011Y4674D03*
G01X25511Y4674D03*
G01X26011Y4674D03*
G01X26511Y4674D03*
G01X27011Y4674D03*
G01X27611Y4674D03*
G01X28111Y4674D03*
G01X28611Y4674D03*
G01X31311Y7474D03*
G01X32511Y7174D03*
G01X13411Y3474D03*
G01X30111Y10174D03*
G01X5111Y8974D03*
G01X13011Y11074D03*
G01X17711Y8574D03*
G01X19411Y8574D03*
G01X25511Y8274D03*
G01X15611Y8274D03*
G01X35211Y8774D03*
G01X34711Y12274D03*
G01X2111Y8474D03*
G01X35311Y12574D03*
G01X8711Y10674D03*
G01X17711Y7974D03*
G01X11151Y7974D03*
G01X15311Y8574D03*
G01X15011Y9174D03*
G01X33311Y10574D03*
G01X10511Y3474D03*
G01X10511Y3874D03*
G01X3511Y7974D03*
G01X3911Y7974D03*
G01X9611Y11074D03*
G01X14811Y5974D03*
G01X15811Y6174D03*
G01X16611Y6374D03*
G01X28711Y9874D03*
G01X28111Y9874D03*
G01X27511Y9874D03*
G01X16811Y7274D03*
G01X34011Y12674D03*
G01X17811Y9874D03*
G01X19711Y9874D03*
G01X16311Y8874D03*
G01X20011Y8874D03*
G01X25411Y11374D03*
G01X19711Y11374D03*
G01X16611Y12374D03*
G01X16351Y11074D03*
G01X34011Y10474D03*
G01X19411Y7974D03*
G01X18411Y7974D03*
G01X36011Y9174D03*
G01X36511Y12274D03*
G01X20311Y9274D03*
G01X20611Y8974D03*
G01X20911Y8674D03*
G01X25111Y9774D03*
G01X25311Y9474D03*
G01X25611Y9174D03*
G01X16111Y12374D03*
G01X11611Y8574D03*
G01X12011Y9974D03*
G01X35611Y9674D03*
G01X36411Y9674D03*
M00*
M02*
