G04 Layer: TopPasteMaskLayer*
G04 EasyEDA v5.9.42, Mon, 13 May 2019 22:36:32 GMT*
G04 18fdc59d78804919a667ee1bdc29a187*
G04 Gerber Generator version 0.2*
G04 Scale: 100 percent, Rotated: No, Reflected: No *
G04 Dimensions in inches *
G04 leading zeros omitted , absolute positions ,2 integer and 4 decimal *
%FSLAX24Y24*%
%MOIN*%
G90*
G70D02*

%ADD13C,0.023622*%
%ADD14C,0.027559*%
%ADD16R,0.027560X0.007870*%
%ADD17R,0.039400X0.031500*%
%ADD18R,0.027600X0.059100*%

%LPD*%
G54D13*
G01X19351Y11458D02*
G01X19351Y11931D01*
G01X18851Y11458D02*
G01X18851Y11931D01*
G01X18351Y11458D02*
G01X18351Y11931D01*
G01X17851Y11458D02*
G01X17851Y11931D01*
G01X17351Y11458D02*
G01X17351Y11931D01*
G01X16851Y11458D02*
G01X16851Y11931D01*
G01X16351Y11458D02*
G01X16351Y11931D01*
G01X15851Y11458D02*
G01X15851Y11931D01*
G01X19351Y9118D02*
G01X19351Y9591D01*
G01X18851Y9118D02*
G01X18851Y9591D01*
G01X18351Y9118D02*
G01X18351Y9591D01*
G01X17851Y9118D02*
G01X17851Y9591D01*
G01X17351Y9118D02*
G01X17351Y9591D01*
G01X16851Y9118D02*
G01X16851Y9591D01*
G01X16351Y9118D02*
G01X16351Y9591D01*
G01X15851Y9118D02*
G01X15851Y9591D01*
G01X12651Y11458D02*
G01X12651Y11931D01*
G01X12151Y11458D02*
G01X12151Y11931D01*
G01X11651Y11458D02*
G01X11651Y11931D01*
G01X11151Y11458D02*
G01X11151Y11931D01*
G01X10651Y11458D02*
G01X10651Y11931D01*
G01X10151Y11458D02*
G01X10151Y11931D01*
G01X9651Y11458D02*
G01X9651Y11931D01*
G01X9151Y11458D02*
G01X9151Y11931D01*
G01X12651Y9118D02*
G01X12651Y9591D01*
G01X12151Y9118D02*
G01X12151Y9591D01*
G01X11651Y9118D02*
G01X11651Y9591D01*
G01X11151Y9118D02*
G01X11151Y9591D01*
G01X10651Y9118D02*
G01X10651Y9591D01*
G01X10151Y9118D02*
G01X10151Y9591D01*
G01X9651Y9118D02*
G01X9651Y9591D01*
G01X9151Y9118D02*
G01X9151Y9591D01*
G54D14*
G01X2466Y8474D02*
G01X3056Y8474D01*
G01X2466Y7974D02*
G01X3056Y7974D01*
G01X2466Y7474D02*
G01X3056Y7474D01*
G01X2466Y6974D02*
G01X3056Y6974D01*
G01X4846Y8474D02*
G01X5436Y8474D01*
G01X4846Y7974D02*
G01X5436Y7974D01*
G01X4846Y7474D02*
G01X5436Y7474D01*
G01X4846Y6974D02*
G01X5436Y6974D01*
G54D16*
G01X26811Y10974D03*
G01X26811Y10778D03*
G01X26811Y10581D03*
G01X26811Y10384D03*
G01X26811Y10187D03*
G01X26811Y9990D03*
G01X26811Y9793D03*
G01X26811Y9596D03*
G01X26811Y9400D03*
G01X26811Y9203D03*
G01X26811Y9006D03*
G01X26811Y8809D03*
G01X26811Y8612D03*
G01X26811Y8415D03*
G01X26811Y8218D03*
G01X26811Y8022D03*
G01X26811Y7825D03*
G01X26811Y7628D03*
G01X26811Y7431D03*
G01X26811Y7234D03*
G01X34646Y7234D03*
G01X34646Y7431D03*
G01X34646Y7628D03*
G01X34646Y7825D03*
G01X34646Y8022D03*
G01X34646Y8218D03*
G01X34646Y8415D03*
G01X34646Y8612D03*
G01X34646Y8809D03*
G01X34646Y9006D03*
G01X34646Y9203D03*
G01X34646Y9400D03*
G01X34646Y9596D03*
G01X34646Y9793D03*
G01X34646Y9990D03*
G01X34646Y10187D03*
G01X34646Y10384D03*
G01X34646Y10581D03*
G01X34646Y10778D03*
G01X34646Y10974D03*
G36*
G01X30167Y2981D02*
G01X30856Y2981D01*
G01X30856Y166D01*
G01X30167Y166D01*
G01X30167Y2981D01*
G37*
G36*
G01X29182Y2981D02*
G01X29871Y2981D01*
G01X29871Y166D01*
G01X29182Y166D01*
G01X29182Y2981D01*
G37*
G36*
G01X28198Y2981D02*
G01X28887Y2981D01*
G01X28887Y166D01*
G01X28198Y166D01*
G01X28198Y2981D01*
G37*
G36*
G01X27214Y2981D02*
G01X27903Y2981D01*
G01X27903Y166D01*
G01X27214Y166D01*
G01X27214Y2981D01*
G37*
G36*
G01X26230Y2981D02*
G01X26919Y2981D01*
G01X26919Y166D01*
G01X26230Y166D01*
G01X26230Y2981D01*
G37*
G36*
G01X25245Y2981D02*
G01X25934Y2981D01*
G01X25934Y166D01*
G01X25245Y166D01*
G01X25245Y2981D01*
G37*
G36*
G01X24261Y2981D02*
G01X24950Y2981D01*
G01X24950Y166D01*
G01X24261Y166D01*
G01X24261Y2981D01*
G37*
G36*
G01X23277Y2981D02*
G01X23966Y2981D01*
G01X23966Y166D01*
G01X23277Y166D01*
G01X23277Y2981D01*
G37*
G36*
G01X22293Y2981D02*
G01X22982Y2981D01*
G01X22982Y166D01*
G01X22293Y166D01*
G01X22293Y2981D01*
G37*
G36*
G01X21308Y2981D02*
G01X21997Y2981D01*
G01X21997Y166D01*
G01X21308Y166D01*
G01X21308Y2981D01*
G37*
G36*
G01X20324Y2981D02*
G01X21013Y2981D01*
G01X21013Y166D01*
G01X20324Y166D01*
G01X20324Y2981D01*
G37*
G36*
G01X19340Y2981D02*
G01X20029Y2981D01*
G01X20029Y166D01*
G01X19340Y166D01*
G01X19340Y2981D01*
G37*
G36*
G01X18356Y2981D02*
G01X19045Y2981D01*
G01X19045Y166D01*
G01X18356Y166D01*
G01X18356Y2981D01*
G37*
G36*
G01X17371Y2981D02*
G01X18060Y2981D01*
G01X18060Y166D01*
G01X17371Y166D01*
G01X17371Y2981D01*
G37*
G36*
G01X16387Y2981D02*
G01X17076Y2981D01*
G01X17076Y166D01*
G01X16387Y166D01*
G01X16387Y2981D01*
G37*
G36*
G01X15403Y2981D02*
G01X16092Y2981D01*
G01X16092Y166D01*
G01X15403Y166D01*
G01X15403Y2981D01*
G37*
G36*
G01X14419Y2981D02*
G01X15108Y2981D01*
G01X15108Y166D01*
G01X14419Y166D01*
G01X14419Y2981D01*
G37*
G36*
G01X13434Y2981D02*
G01X14123Y2981D01*
G01X14123Y166D01*
G01X13434Y166D01*
G01X13434Y2981D01*
G37*
G36*
G01X12450Y2981D02*
G01X13139Y2981D01*
G01X13139Y166D01*
G01X12450Y166D01*
G01X12450Y2981D01*
G37*
G36*
G01X11466Y2981D02*
G01X12155Y2981D01*
G01X12155Y166D01*
G01X11466Y166D01*
G01X11466Y2981D01*
G37*
G36*
G01X10482Y2981D02*
G01X11171Y2981D01*
G01X11171Y166D01*
G01X10482Y166D01*
G01X10482Y2981D01*
G37*
G36*
G01X9497Y2981D02*
G01X10186Y2981D01*
G01X10186Y166D01*
G01X9497Y166D01*
G01X9497Y2981D01*
G37*
G36*
G01X8513Y2981D02*
G01X9202Y2981D01*
G01X9202Y166D01*
G01X8513Y166D01*
G01X8513Y2981D01*
G37*
G54D17*
G01X37071Y14204D03*
G01X37071Y13344D03*
G01X34151Y13344D03*
G01X34151Y14204D03*
G54D18*
G01X36501Y13034D03*
G01X35311Y13034D03*
G01X34721Y13034D03*
M00*
M02*
