G04 Layer: BottomLayer*
G04 EasyEDA v5.9.42, Mon, 13 May 2019 22:36:32 GMT*
G04 18fdc59d78804919a667ee1bdc29a187*
G04 Gerber Generator version 0.2*
G04 Scale: 100 percent, Rotated: No, Reflected: No *
G04 Dimensions in inches *
G04 leading zeros omitted , absolute positions ,2 integer and 4 decimal *
%FSLAX24Y24*%
%MOIN*%
G90*
G70D02*

%ADD10C,0.010000*%
%ADD11C,0.025000*%
%ADD12C,0.015000*%
%ADD15C,0.024400*%
%ADD17R,0.039400X0.031500*%
%ADD18R,0.027600X0.059100*%
%ADD19C,0.039370*%
%ADD20C,0.045000*%
%ADD21C,0.030000*%

%LPD*%
G54D10*
G01X32911Y8074D02*
G01X31111Y8074D01*
G01X29011Y5974D01*
G01X22211Y5974D01*
G01X21611Y5374D01*
G01X19811Y5374D01*
G01X19511Y5074D01*
G01X17011Y5074D01*
G01X16711Y4774D01*
G01X16711Y1595D01*
G01X16732Y1574D01*
G01X33311Y8374D02*
G01X31111Y8374D01*
G01X28911Y6174D01*
G01X22111Y6174D01*
G01X21511Y5574D01*
G01X19711Y5574D01*
G01X19411Y5274D01*
G01X16011Y5274D01*
G01X15711Y4974D01*
G01X15711Y1611D01*
G01X15747Y1574D01*
G01X33611Y8674D02*
G01X31111Y8674D01*
G01X28811Y6374D01*
G01X22011Y6374D01*
G01X21411Y5774D01*
G01X19611Y5774D01*
G01X19311Y5474D01*
G01X15111Y5474D01*
G01X14811Y5174D01*
G01X14811Y1622D01*
G01X14763Y1574D01*
G01X30711Y8874D02*
G01X30711Y8874D01*
G01X30711Y8674D01*
G01X28711Y6574D01*
G01X21911Y6574D01*
G01X21311Y5974D01*
G01X19511Y5974D01*
G01X19211Y5674D01*
G01X14211Y5674D01*
G01X13811Y5274D01*
G01X13811Y1604D01*
G01X13779Y1574D01*
G01X33511Y11274D02*
G01X28611Y11274D01*
G01X28011Y11874D01*
G01X13411Y11874D01*
G01X12811Y12374D01*
G01X12411Y12374D01*
G01X33611Y10774D02*
G01X33311Y11074D01*
G01X28511Y11074D01*
G01X27911Y11674D01*
G01X13011Y11674D01*
G01X26011Y11274D02*
G01X25811Y11074D01*
G01X17611Y11074D01*
G01X16911Y10274D01*
G01X10911Y10274D01*
G01X10811Y10174D01*
G01X26011Y10874D02*
G01X18211Y10874D01*
G01X18011Y10674D01*
G01X16911Y10774D02*
G01X16611Y10474D01*
G01X9911Y10474D01*
G01X9311Y8874D02*
G01X15911Y8874D01*
G01X35311Y12574D02*
G01X34411Y12574D01*
G01X33311Y11474D01*
G01X28711Y11474D01*
G01X28111Y12074D01*
G01X16411Y12074D01*
G01X16111Y12374D01*
G01X22637Y1574D02*
G01X22611Y3674D01*
G01X23411Y4574D01*
G01X23511Y4674D01*
G01X25011Y4674D01*
G01X23621Y1574D02*
G01X23611Y3674D01*
G01X23611Y3674D01*
G01X24111Y4174D01*
G01X25011Y4174D01*
G01X25511Y4674D01*
G01X27558Y1574D02*
G01X27558Y4622D01*
G01X27611Y4674D01*
G01X28543Y1574D02*
G01X28543Y4243D01*
G01X28111Y4674D01*
G01X29527Y1574D02*
G01X29527Y3758D01*
G01X28611Y4674D01*
G01X4411Y7474D02*
G01X4911Y7074D01*
G01X9111Y7074D01*
G01X11111Y5074D01*
G01X11111Y3911D01*
G01X11811Y3474D01*
G01X11810Y1574D01*
G01X4411Y7074D02*
G01X4811Y6874D01*
G01X7611Y6874D01*
G01X8011Y6874D01*
G01X9011Y6874D01*
G01X10811Y5074D01*
G01X10811Y1589D01*
G01X10826Y1574D01*
G01X18700Y1574D02*
G01X18700Y4363D01*
G01X18911Y4574D01*
G01X19611Y4574D01*
G01X20011Y4974D01*
G01X21811Y4974D01*
G01X22411Y5574D01*
G01X29211Y5574D01*
G01X31111Y7474D01*
G01X31311Y7474D01*
G01X17716Y1574D02*
G01X17716Y4384D01*
G01X18111Y4774D01*
G01X19511Y4774D01*
G01X19911Y5174D01*
G01X21711Y5174D01*
G01X22311Y5774D01*
G01X29111Y5774D01*
G01X31111Y7774D01*
G01X32411Y7774D01*
G01X32611Y7774D01*
G01X33411Y7774D01*
G01X33411Y7774D01*
G01X34011Y8774D01*
G01X34011Y10474D01*
G01X34011Y10474D01*
G01X32111Y7474D02*
G01X31811Y7474D01*
G01X31411Y7074D01*
G01X31011Y7074D01*
G01X30211Y6274D01*
G01X29311Y5374D01*
G01X22511Y5374D01*
G01X21911Y4774D01*
G01X20211Y4774D01*
G01X19711Y4274D01*
G01X19711Y1601D01*
G01X19684Y1574D01*
G01X20669Y1574D02*
G01X20669Y4131D01*
G01X21111Y4574D01*
G01X22011Y4574D01*
G01X22611Y5174D01*
G01X29511Y5174D01*
G01X31111Y6774D01*
G01X31511Y6774D01*
G01X31911Y7174D01*
G01X32511Y7174D01*
G01X21653Y1574D02*
G01X21653Y1574D01*
G01X21611Y3774D01*
G01X22811Y4974D01*
G01X29711Y4974D01*
G01X31211Y6474D01*
G01X31711Y6474D01*
G01X32111Y6874D01*
G01X24606Y1574D02*
G01X24606Y3669D01*
G01X24811Y3874D01*
G01X25211Y3874D01*
G01X26011Y4674D01*
G01X26511Y4674D02*
G01X25511Y3674D01*
G01X25511Y1653D01*
G01X25590Y1574D01*
G01X26574Y1574D02*
G01X26574Y4237D01*
G01X27011Y4674D01*
G01X24911Y10174D02*
G01X17511Y10174D01*
G01X25411Y10474D02*
G01X18811Y10474D01*
G54D12*
G01X5111Y8974D02*
G01X3411Y10674D01*
G54D10*
G01X17711Y8574D02*
G01X19411Y8574D01*
G01X38311Y6374D02*
G01X37611Y6374D01*
G01X35211Y8774D01*
G54D11*
G01X8857Y1574D02*
G01X8857Y5124D01*
G01X8111Y5974D01*
G01X2311Y5974D01*
G01X1811Y6474D01*
G01X1811Y8174D01*
G01X2111Y8474D01*
G01X30511Y1574D02*
G01X30511Y5274D01*
G01X31311Y6074D01*
G01X37811Y6074D01*
G01X38311Y6374D01*
G54D10*
G01X25511Y8274D02*
G01X15611Y8274D01*
G01X8711Y10674D02*
G01X8711Y8974D01*
G01X9411Y8274D01*
G01X9411Y8274D01*
G01X15611Y8274D01*
G01X11151Y7974D02*
G01X17711Y7974D01*
G01X3911Y7974D02*
G01X3911Y6974D01*
G01X4211Y6674D01*
G01X7511Y6674D01*
G01X7911Y6674D01*
G01X8911Y6674D01*
G01X10511Y5074D01*
G01X10511Y3874D01*
G01X3511Y7974D02*
G01X3511Y6774D01*
G01X3811Y6474D01*
G01X8811Y6474D01*
G01X10211Y5074D01*
G01X10211Y3774D01*
G01X10511Y3474D01*
G54D12*
G01X4411Y10674D02*
G01X8711Y10674D01*
G01X3411Y10674D02*
G01X3411Y10774D01*
G01X3711Y11074D01*
G01X9611Y11074D01*
G54D10*
G01X28711Y9874D02*
G01X28711Y9074D01*
G01X26411Y6774D01*
G01X21811Y6774D01*
G01X21211Y6174D01*
G01X19411Y6174D01*
G01X19111Y5874D01*
G01X14911Y5874D01*
G01X14811Y5974D01*
G01X28111Y9874D02*
G01X28111Y8874D01*
G01X26211Y6974D01*
G01X21711Y6974D01*
G01X21111Y6374D01*
G01X19311Y6374D01*
G01X19011Y6074D01*
G01X15911Y6074D01*
G01X15811Y6174D01*
G01X27511Y9874D02*
G01X27511Y8574D01*
G01X26111Y7174D01*
G01X21611Y7174D01*
G01X21011Y6574D01*
G01X19211Y6574D01*
G01X18911Y6274D01*
G01X16711Y6274D01*
G01X16611Y6374D01*
G01X30111Y10174D02*
G01X27111Y10174D01*
G01X26711Y9774D01*
G01X26711Y8074D01*
G01X26011Y7374D01*
G01X21511Y7374D01*
G01X20911Y6774D01*
G01X13911Y6774D01*
G01X13411Y6274D01*
G01X13411Y3474D01*
G01X26211Y9274D02*
G01X26211Y7874D01*
G01X25911Y7574D01*
G01X21411Y7574D01*
G01X20811Y6974D01*
G01X13711Y6974D01*
G01X12811Y6074D01*
G01X12811Y1591D01*
G01X12795Y1574D01*
G01X33311Y10574D02*
G01X26211Y10574D01*
G01X25911Y9974D01*
G01X25911Y7974D01*
G01X25711Y7774D01*
G01X21311Y7774D01*
G01X20711Y7174D01*
G01X16911Y7174D01*
G01X16811Y7274D01*
G01X17811Y9874D02*
G01X19711Y9874D01*
G01X16311Y8874D02*
G01X20011Y8874D01*
G01X19711Y11374D02*
G01X25411Y11374D01*
G01X13011Y11074D02*
G01X16351Y11074D01*
G01X35211Y8774D02*
G01X35211Y11774D01*
G01X34711Y12274D01*
G01X34011Y12674D02*
G01X33011Y11674D01*
G01X28811Y11674D01*
G01X28211Y12274D01*
G01X21311Y12274D01*
G01X20111Y12274D01*
G01X16711Y12274D01*
G01X16611Y12374D01*
G01X18411Y7974D02*
G01X19411Y7974D01*
G01X38311Y6965D02*
G01X38220Y6965D01*
G01X36011Y9174D01*
G01X25111Y9774D02*
G01X20811Y9774D01*
G01X20311Y9274D01*
G01X25311Y9474D02*
G01X21111Y9474D01*
G01X20611Y8974D01*
G01X25611Y9174D02*
G01X21411Y9174D01*
G01X20911Y8674D01*
G01X13011Y11074D02*
G01X9611Y11074D01*
G01X11611Y8574D02*
G01X15311Y8574D01*
G01X15011Y9174D02*
G01X12811Y9174D01*
G01X12011Y9974D01*
G01X31621Y5415D02*
G01X31621Y6074D01*
G01X31621Y6074D01*
G01X33501Y5415D02*
G01X38252Y5415D01*
G01X38911Y6074D01*
G01X38911Y6365D01*
G01X38311Y6965D01*
G01X35311Y12574D02*
G01X35611Y12274D01*
G01X35611Y9674D01*
G01X32211Y5374D02*
G01X32211Y4674D01*
G01X32711Y4374D01*
G01X33511Y4374D01*
G01X33911Y4674D01*
G01X38111Y4674D01*
G01X39211Y5774D01*
G01X39211Y6574D01*
G01X36411Y9374D01*
G01X36411Y9674D01*
G01X36011Y9174D02*
G01X36011Y11774D01*
G01X36511Y12274D01*
G54D17*
G01X33971Y4245D03*
G01X33971Y5105D03*
G01X31051Y5105D03*
G01X31051Y4245D03*
G54D18*
G01X33401Y5415D03*
G01X32211Y5415D03*
G01X31621Y5415D03*
G36*
G01X30167Y2981D02*
G01X30856Y2981D01*
G01X30856Y166D01*
G01X30167Y166D01*
G01X30167Y2981D01*
G37*
G36*
G01X29182Y2981D02*
G01X29871Y2981D01*
G01X29871Y166D01*
G01X29182Y166D01*
G01X29182Y2981D01*
G37*
G36*
G01X28198Y2981D02*
G01X28887Y2981D01*
G01X28887Y166D01*
G01X28198Y166D01*
G01X28198Y2981D01*
G37*
G36*
G01X27214Y2981D02*
G01X27903Y2981D01*
G01X27903Y166D01*
G01X27214Y166D01*
G01X27214Y2981D01*
G37*
G36*
G01X26230Y2981D02*
G01X26919Y2981D01*
G01X26919Y166D01*
G01X26230Y166D01*
G01X26230Y2981D01*
G37*
G36*
G01X25245Y2981D02*
G01X25934Y2981D01*
G01X25934Y166D01*
G01X25245Y166D01*
G01X25245Y2981D01*
G37*
G36*
G01X24261Y2981D02*
G01X24950Y2981D01*
G01X24950Y166D01*
G01X24261Y166D01*
G01X24261Y2981D01*
G37*
G36*
G01X23277Y2981D02*
G01X23966Y2981D01*
G01X23966Y166D01*
G01X23277Y166D01*
G01X23277Y2981D01*
G37*
G36*
G01X22293Y2981D02*
G01X22982Y2981D01*
G01X22982Y166D01*
G01X22293Y166D01*
G01X22293Y2981D01*
G37*
G36*
G01X21308Y2981D02*
G01X21997Y2981D01*
G01X21997Y166D01*
G01X21308Y166D01*
G01X21308Y2981D01*
G37*
G36*
G01X20324Y2981D02*
G01X21013Y2981D01*
G01X21013Y166D01*
G01X20324Y166D01*
G01X20324Y2981D01*
G37*
G36*
G01X19340Y2981D02*
G01X20029Y2981D01*
G01X20029Y166D01*
G01X19340Y166D01*
G01X19340Y2981D01*
G37*
G36*
G01X18356Y2981D02*
G01X19045Y2981D01*
G01X19045Y166D01*
G01X18356Y166D01*
G01X18356Y2981D01*
G37*
G36*
G01X17371Y2981D02*
G01X18060Y2981D01*
G01X18060Y166D01*
G01X17371Y166D01*
G01X17371Y2981D01*
G37*
G36*
G01X16387Y2981D02*
G01X17076Y2981D01*
G01X17076Y166D01*
G01X16387Y166D01*
G01X16387Y2981D01*
G37*
G36*
G01X15403Y2981D02*
G01X16092Y2981D01*
G01X16092Y166D01*
G01X15403Y166D01*
G01X15403Y2981D01*
G37*
G36*
G01X14419Y2981D02*
G01X15108Y2981D01*
G01X15108Y166D01*
G01X14419Y166D01*
G01X14419Y2981D01*
G37*
G36*
G01X13434Y2981D02*
G01X14123Y2981D01*
G01X14123Y166D01*
G01X13434Y166D01*
G01X13434Y2981D01*
G37*
G36*
G01X12450Y2981D02*
G01X13139Y2981D01*
G01X13139Y166D01*
G01X12450Y166D01*
G01X12450Y2981D01*
G37*
G36*
G01X11466Y2981D02*
G01X12155Y2981D01*
G01X12155Y166D01*
G01X11466Y166D01*
G01X11466Y2981D01*
G37*
G36*
G01X10482Y2981D02*
G01X11171Y2981D01*
G01X11171Y166D01*
G01X10482Y166D01*
G01X10482Y2981D01*
G37*
G36*
G01X9497Y2981D02*
G01X10186Y2981D01*
G01X10186Y166D01*
G01X9497Y166D01*
G01X9497Y2981D01*
G37*
G36*
G01X8513Y2981D02*
G01X9202Y2981D01*
G01X9202Y166D01*
G01X8513Y166D01*
G01X8513Y2981D01*
G37*
G54D19*
G01X38311Y6374D03*
G01X38311Y6965D03*
G54D20*
G01X3411Y10674D03*
G01X4411Y10674D03*
G54D21*
G01X35011Y13674D03*
G01X36211Y13674D03*
G01X31911Y4774D03*
G01X33111Y4774D03*
G54D15*
G01X4411Y7074D03*
G01X4411Y7474D03*
G01X30711Y8874D03*
G01X33611Y8674D03*
G01X33311Y8374D03*
G01X32911Y8074D03*
G01X32111Y7474D03*
G01X32111Y6874D03*
G01X33511Y11274D03*
G01X33611Y10774D03*
G01X12411Y12374D03*
G01X13011Y11674D03*
G01X26011Y11274D03*
G01X26011Y10874D03*
G01X25411Y10474D03*
G01X24911Y10174D03*
G01X10811Y10174D03*
G01X18011Y10674D03*
G01X18811Y10474D03*
G01X17511Y10174D03*
G01X9911Y10474D03*
G01X16911Y10774D03*
G01X15911Y8874D03*
G01X9311Y8874D03*
G01X26211Y9274D03*
G01X25011Y4674D03*
G01X25511Y4674D03*
G01X26011Y4674D03*
G01X26511Y4674D03*
G01X27011Y4674D03*
G01X27611Y4674D03*
G01X28111Y4674D03*
G01X28611Y4674D03*
G01X31311Y7474D03*
G01X32511Y7174D03*
G01X13411Y3474D03*
G01X30111Y10174D03*
G01X5111Y8974D03*
G01X13011Y11074D03*
G01X17711Y8574D03*
G01X19411Y8574D03*
G01X25511Y8274D03*
G01X15611Y8274D03*
G01X35211Y8774D03*
G01X34711Y12274D03*
G01X2111Y8474D03*
G01X35311Y12574D03*
G01X8711Y10674D03*
G01X17711Y7974D03*
G01X11151Y7974D03*
G01X15311Y8574D03*
G01X15011Y9174D03*
G01X33311Y10574D03*
G01X10511Y3474D03*
G01X10511Y3874D03*
G01X3511Y7974D03*
G01X3911Y7974D03*
G01X9611Y11074D03*
G01X14811Y5974D03*
G01X15811Y6174D03*
G01X16611Y6374D03*
G01X28711Y9874D03*
G01X28111Y9874D03*
G01X27511Y9874D03*
G01X16811Y7274D03*
G01X34011Y12674D03*
G01X17811Y9874D03*
G01X19711Y9874D03*
G01X16311Y8874D03*
G01X20011Y8874D03*
G01X25411Y11374D03*
G01X19711Y11374D03*
G01X16611Y12374D03*
G01X16351Y11074D03*
G01X34011Y10474D03*
G01X19411Y7974D03*
G01X18411Y7974D03*
G01X36011Y9174D03*
G01X36511Y12274D03*
G01X20311Y9274D03*
G01X20611Y8974D03*
G01X20911Y8674D03*
G01X25111Y9774D03*
G01X25311Y9474D03*
G01X25611Y9174D03*
G01X16111Y12374D03*
G01X11611Y8574D03*
G01X12011Y9974D03*
G01X35611Y9674D03*
G01X36411Y9674D03*
M00*
M02*
