G04 Layer: TopSilkLayer*
G04 EasyEDA v5.9.42, Mon, 13 May 2019 22:36:32 GMT*
G04 18fdc59d78804919a667ee1bdc29a187*
G04 Gerber Generator version 0.2*
G04 Scale: 100 percent, Rotated: No, Reflected: No *
G04 Dimensions in inches *
G04 leading zeros omitted , absolute positions ,2 integer and 4 decimal *
%FSLAX24Y24*%
%MOIN*%
G90*
G70D02*

%ADD10C,0.010000*%
%ADD12C,0.015000*%
%ADD22C,0.008000*%
%ADD23C,0.015748*%
%ADD24C,0.007000*%

%LPD*%
G54D22*
G01X27106Y11072D02*
G01X34350Y11072D01*
G01X34350Y7135D01*
G01X27106Y7135D01*
G01X27106Y11072D01*
G54D10*
G01X38165Y7555D02*
G01X38475Y7555D01*
G01X38315Y7383D02*
G01X38315Y7713D01*
G01X2911Y11124D02*
G01X4911Y11124D01*
G01X4911Y10224D01*
G01X2911Y10224D01*
G01X2911Y11124D01*
G01X15642Y11075D02*
G01X15642Y9794D01*
G01X19560Y9794D01*
G01X19560Y11244D01*
G01X15642Y11244D01*
G01X15642Y11075D01*
G01X8942Y11075D02*
G01X8942Y9794D01*
G01X12860Y9794D01*
G01X12860Y11244D01*
G01X8942Y11244D01*
G01X8942Y11075D01*
G01X3321Y8674D02*
G01X3321Y6774D01*
G01X4561Y6774D01*
G01X4561Y8674D01*
G01X4561Y8674D02*
G01X4191Y8674D01*
G01X3691Y8674D02*
G01X3321Y8674D01*
G01X36791Y13184D02*
G01X34431Y13184D01*
G01X34431Y13184D02*
G01X34431Y14364D01*
G01X34431Y14364D02*
G01X35021Y14364D01*
G01X35021Y14364D02*
G01X35611Y14364D01*
G01X35611Y14364D02*
G01X36791Y14364D01*
G01X36791Y14364D02*
G01X36791Y13184D01*
G01X35021Y14364D02*
G01X35021Y14754D01*
G01X35611Y14364D02*
G01X35611Y14754D01*
G01X35611Y14754D02*
G01X35021Y14754D01*
G54D24*
G01X29531Y11572D02*
G01X29531Y11593D01*
G01X29552Y11634D01*
G01X29572Y11654D01*
G01X29613Y11674D01*
G01X29695Y11674D01*
G01X29736Y11654D01*
G01X29756Y11634D01*
G01X29777Y11593D01*
G01X29777Y11552D01*
G01X29756Y11511D01*
G01X29716Y11449D01*
G01X29511Y11245D01*
G01X29797Y11245D01*
G01X30198Y11531D02*
G01X30178Y11470D01*
G01X30137Y11429D01*
G01X30076Y11409D01*
G01X30055Y11409D01*
G01X29994Y11429D01*
G01X29953Y11470D01*
G01X29932Y11531D01*
G01X29932Y11552D01*
G01X29953Y11613D01*
G01X29994Y11654D01*
G01X30055Y11674D01*
G01X30076Y11674D01*
G01X30137Y11654D01*
G01X30178Y11613D01*
G01X30198Y11531D01*
G01X30198Y11429D01*
G01X30178Y11327D01*
G01X30137Y11265D01*
G01X30076Y11245D01*
G01X30035Y11245D01*
G01X29973Y11265D01*
G01X29953Y11306D01*
G01X30333Y11674D02*
G01X30333Y11245D01*
G01X30333Y11674D02*
G01X30599Y11674D01*
G01X30333Y11470D02*
G01X30497Y11470D01*
G01X30857Y11674D02*
G01X30796Y11654D01*
G01X30755Y11593D01*
G01X30734Y11490D01*
G01X30734Y11429D01*
G01X30755Y11327D01*
G01X30796Y11265D01*
G01X30857Y11245D01*
G01X30898Y11245D01*
G01X30959Y11265D01*
G01X31000Y11327D01*
G01X31021Y11429D01*
G01X31021Y11490D01*
G01X31000Y11593D01*
G01X30959Y11654D01*
G01X30898Y11674D01*
G01X30857Y11674D01*
G01X31196Y11674D02*
G01X31421Y11674D01*
G01X31299Y11511D01*
G01X31360Y11511D01*
G01X31401Y11490D01*
G01X31421Y11470D01*
G01X31442Y11409D01*
G01X31442Y11368D01*
G01X31421Y11306D01*
G01X31381Y11265D01*
G01X31319Y11245D01*
G01X31258Y11245D01*
G01X31196Y11265D01*
G01X31176Y11286D01*
G01X31156Y11327D01*
G01X31618Y11674D02*
G01X31843Y11674D01*
G01X31720Y11511D01*
G01X31781Y11511D01*
G01X31822Y11490D01*
G01X31843Y11470D01*
G01X31863Y11409D01*
G01X31863Y11368D01*
G01X31843Y11306D01*
G01X31802Y11265D01*
G01X31741Y11245D01*
G01X31679Y11245D01*
G01X31618Y11265D01*
G01X31597Y11286D01*
G01X31577Y11327D01*
G01X32305Y11572D02*
G01X32285Y11613D01*
G01X32244Y11654D01*
G01X32203Y11674D01*
G01X32121Y11674D01*
G01X32080Y11654D01*
G01X32039Y11613D01*
G01X32019Y11572D01*
G01X31998Y11511D01*
G01X31998Y11409D01*
G01X32019Y11347D01*
G01X32039Y11306D01*
G01X32080Y11265D01*
G01X32121Y11245D01*
G01X32203Y11245D01*
G01X32244Y11265D01*
G01X32285Y11306D01*
G01X32305Y11347D01*
G01X19918Y15217D02*
G01X19897Y15258D01*
G01X19856Y15299D01*
G01X19816Y15319D01*
G01X19734Y15319D01*
G01X19693Y15299D01*
G01X19652Y15258D01*
G01X19631Y15217D01*
G01X19611Y15156D01*
G01X19611Y15054D01*
G01X19631Y14992D01*
G01X19652Y14951D01*
G01X19693Y14910D01*
G01X19734Y14890D01*
G01X19816Y14890D01*
G01X19856Y14910D01*
G01X19897Y14951D01*
G01X19918Y14992D01*
G01X19918Y15054D01*
G01X19816Y15054D02*
G01X19918Y15054D01*
G01X20155Y15401D02*
G01X20155Y14808D01*
G01X20237Y15401D02*
G01X20237Y14808D01*
G01X20339Y15258D02*
G01X20298Y15299D01*
G01X20237Y15319D01*
G01X20155Y15319D01*
G01X20094Y15299D01*
G01X20053Y15258D01*
G01X20053Y15217D01*
G01X20073Y15176D01*
G01X20094Y15156D01*
G01X20135Y15135D01*
G01X20257Y15094D01*
G01X20298Y15074D01*
G01X20319Y15054D01*
G01X20339Y15013D01*
G01X20339Y14951D01*
G01X20298Y14910D01*
G01X20237Y14890D01*
G01X20155Y14890D01*
G01X20094Y14910D01*
G01X20053Y14951D01*
G01X20474Y15238D02*
G01X20515Y15258D01*
G01X20576Y15319D01*
G01X20576Y14890D01*
G01X37925Y8205D02*
G01X37925Y8219D01*
G01X37938Y8246D01*
G01X37952Y8260D01*
G01X37979Y8274D01*
G01X38034Y8274D01*
G01X38061Y8260D01*
G01X38075Y8246D01*
G01X38088Y8219D01*
G01X38088Y8192D01*
G01X38075Y8165D01*
G01X38047Y8124D01*
G01X37911Y7987D01*
G01X38102Y7987D01*
G01X38206Y8205D02*
G01X38206Y8219D01*
G01X38219Y8246D01*
G01X38233Y8260D01*
G01X38260Y8274D01*
G01X38315Y8274D01*
G01X38342Y8260D01*
G01X38356Y8246D01*
G01X38369Y8219D01*
G01X38369Y8192D01*
G01X38356Y8165D01*
G01X38328Y8124D01*
G01X38192Y7987D01*
G01X38383Y7987D01*
G01X38473Y8274D02*
G01X38473Y8069D01*
G01X38486Y8028D01*
G01X38514Y8001D01*
G01X38555Y7987D01*
G01X38582Y7987D01*
G01X38623Y8001D01*
G01X38650Y8028D01*
G01X38664Y8069D01*
G01X38664Y8274D01*
G01X38754Y8274D02*
G01X38754Y7987D01*
G01X38754Y8274D02*
G01X38931Y8274D01*
G01X38754Y8137D02*
G01X38863Y8137D01*
G01X3593Y11774D02*
G01X3552Y11760D01*
G01X3525Y11719D01*
G01X3511Y11651D01*
G01X3511Y11610D01*
G01X3525Y11542D01*
G01X3552Y11501D01*
G01X3593Y11487D01*
G01X3620Y11487D01*
G01X3661Y11501D01*
G01X3688Y11542D01*
G01X3702Y11610D01*
G01X3702Y11651D01*
G01X3688Y11719D01*
G01X3661Y11760D01*
G01X3620Y11774D01*
G01X3593Y11774D01*
G01X3806Y11555D02*
G01X3792Y11542D01*
G01X3806Y11528D01*
G01X3819Y11542D01*
G01X3806Y11555D01*
G01X3909Y11719D02*
G01X3936Y11733D01*
G01X3977Y11774D01*
G01X3977Y11487D01*
G01X4067Y11774D02*
G01X4067Y11569D01*
G01X4081Y11528D01*
G01X4108Y11501D01*
G01X4149Y11487D01*
G01X4176Y11487D01*
G01X4217Y11501D01*
G01X4245Y11528D01*
G01X4258Y11569D01*
G01X4258Y11774D01*
G01X4348Y11774D02*
G01X4348Y11487D01*
G01X4348Y11774D02*
G01X4526Y11774D01*
G01X4348Y11637D02*
G01X4457Y11637D01*
G01X16902Y12574D02*
G01X16766Y12287D01*
G01X16711Y12574D02*
G01X16902Y12574D01*
G01X17128Y12574D02*
G01X16992Y12383D01*
G01X17196Y12383D01*
G01X17128Y12574D02*
G01X17128Y12287D01*
G01X17286Y12574D02*
G01X17286Y12287D01*
G01X17477Y12574D02*
G01X17477Y12287D01*
G01X17286Y12437D02*
G01X17477Y12437D01*
G01X17772Y12505D02*
G01X17758Y12533D01*
G01X17731Y12560D01*
G01X17704Y12574D01*
G01X17649Y12574D01*
G01X17622Y12560D01*
G01X17595Y12533D01*
G01X17581Y12505D01*
G01X17567Y12465D01*
G01X17567Y12396D01*
G01X17581Y12355D01*
G01X17595Y12328D01*
G01X17622Y12301D01*
G01X17649Y12287D01*
G01X17704Y12287D01*
G01X17731Y12301D01*
G01X17758Y12328D01*
G01X17772Y12355D01*
G01X17862Y12519D02*
G01X17889Y12533D01*
G01X17930Y12574D01*
G01X17930Y12287D01*
G01X18184Y12574D02*
G01X18047Y12574D01*
G01X18034Y12451D01*
G01X18047Y12465D01*
G01X18088Y12478D01*
G01X18129Y12478D01*
G01X18170Y12465D01*
G01X18197Y12437D01*
G01X18211Y12396D01*
G01X18211Y12369D01*
G01X18197Y12328D01*
G01X18170Y12301D01*
G01X18129Y12287D01*
G01X18088Y12287D01*
G01X18047Y12301D01*
G01X18034Y12315D01*
G01X18020Y12342D01*
G01X18492Y12574D02*
G01X18356Y12287D01*
G01X18301Y12574D02*
G01X18492Y12574D01*
G01X10202Y12574D02*
G01X10066Y12287D01*
G01X10011Y12574D02*
G01X10202Y12574D01*
G01X10428Y12574D02*
G01X10292Y12383D01*
G01X10496Y12383D01*
G01X10428Y12574D02*
G01X10428Y12287D01*
G01X10586Y12574D02*
G01X10586Y12287D01*
G01X10777Y12574D02*
G01X10777Y12287D01*
G01X10586Y12437D02*
G01X10777Y12437D01*
G01X11072Y12505D02*
G01X11058Y12533D01*
G01X11031Y12560D01*
G01X11004Y12574D01*
G01X10949Y12574D01*
G01X10922Y12560D01*
G01X10895Y12533D01*
G01X10881Y12505D01*
G01X10867Y12465D01*
G01X10867Y12396D01*
G01X10881Y12355D01*
G01X10895Y12328D01*
G01X10922Y12301D01*
G01X10949Y12287D01*
G01X11004Y12287D01*
G01X11031Y12301D01*
G01X11058Y12328D01*
G01X11072Y12355D01*
G01X11162Y12519D02*
G01X11189Y12533D01*
G01X11230Y12574D01*
G01X11230Y12287D01*
G01X11484Y12574D02*
G01X11347Y12574D01*
G01X11334Y12451D01*
G01X11347Y12465D01*
G01X11388Y12478D01*
G01X11429Y12478D01*
G01X11470Y12465D01*
G01X11497Y12437D01*
G01X11511Y12396D01*
G01X11511Y12369D01*
G01X11497Y12328D01*
G01X11470Y12301D01*
G01X11429Y12287D01*
G01X11388Y12287D01*
G01X11347Y12301D01*
G01X11334Y12315D01*
G01X11320Y12342D01*
G01X11792Y12574D02*
G01X11656Y12287D01*
G01X11601Y12574D02*
G01X11792Y12574D01*
G01X3211Y9319D02*
G01X3238Y9333D01*
G01X3279Y9374D01*
G01X3279Y9087D01*
G01X3383Y9305D02*
G01X3383Y9319D01*
G01X3396Y9346D01*
G01X3410Y9360D01*
G01X3437Y9374D01*
G01X3492Y9374D01*
G01X3519Y9360D01*
G01X3533Y9346D01*
G01X3546Y9319D01*
G01X3546Y9292D01*
G01X3533Y9265D01*
G01X3506Y9224D01*
G01X3369Y9087D01*
G01X3560Y9087D01*
G01X3650Y9374D02*
G01X3650Y9087D01*
G01X3650Y9374D02*
G01X3827Y9374D01*
G01X3650Y9237D02*
G01X3759Y9237D01*
G01X4081Y9333D02*
G01X4067Y9360D01*
G01X4026Y9374D01*
G01X3999Y9374D01*
G01X3958Y9360D01*
G01X3931Y9319D01*
G01X3917Y9251D01*
G01X3917Y9183D01*
G01X3931Y9128D01*
G01X3958Y9101D01*
G01X3999Y9087D01*
G01X4013Y9087D01*
G01X4054Y9101D01*
G01X4081Y9128D01*
G01X4095Y9169D01*
G01X4095Y9183D01*
G01X4081Y9224D01*
G01X4054Y9251D01*
G01X4013Y9265D01*
G01X3999Y9265D01*
G01X3958Y9251D01*
G01X3931Y9224D01*
G01X3917Y9183D01*
G01X4198Y9305D02*
G01X4198Y9319D01*
G01X4212Y9346D01*
G01X4226Y9360D01*
G01X4253Y9374D01*
G01X4307Y9374D01*
G01X4335Y9360D01*
G01X4348Y9346D01*
G01X4362Y9319D01*
G01X4362Y9292D01*
G01X4348Y9265D01*
G01X4321Y9224D01*
G01X4185Y9087D01*
G01X4376Y9087D01*
G01X4643Y9278D02*
G01X4629Y9237D01*
G01X4602Y9210D01*
G01X4561Y9196D01*
G01X4547Y9196D01*
G01X4506Y9210D01*
G01X4479Y9237D01*
G01X4466Y9278D01*
G01X4466Y9292D01*
G01X4479Y9333D01*
G01X4506Y9360D01*
G01X4547Y9374D01*
G01X4561Y9374D01*
G01X4602Y9360D01*
G01X4629Y9333D01*
G01X4643Y9278D01*
G01X4643Y9210D01*
G01X4629Y9142D01*
G01X4602Y9101D01*
G01X4561Y9087D01*
G01X4534Y9087D01*
G01X4493Y9101D01*
G01X4479Y9128D01*
G01X35011Y12338D02*
G01X35011Y12051D01*
G01X35202Y12338D02*
G01X35202Y12051D01*
G01X35011Y12201D02*
G01X35202Y12201D01*
G01X35292Y12338D02*
G01X35292Y12051D01*
G01X35382Y12174D02*
G01X35627Y12174D01*
G01X35717Y12338D02*
G01X35717Y12051D01*
G01X35717Y12051D02*
G01X35881Y12051D01*
G01X36053Y12338D02*
G01X36026Y12324D01*
G01X35998Y12297D01*
G01X35985Y12269D01*
G01X35971Y12229D01*
G01X35971Y12160D01*
G01X35985Y12119D01*
G01X35998Y12092D01*
G01X36026Y12065D01*
G01X36053Y12051D01*
G01X36107Y12051D01*
G01X36135Y12065D01*
G01X36162Y12092D01*
G01X36176Y12119D01*
G01X36189Y12160D01*
G01X36189Y12229D01*
G01X36176Y12269D01*
G01X36162Y12297D01*
G01X36135Y12324D01*
G01X36107Y12338D01*
G01X36053Y12338D01*
G54D12*
G01X811Y13619D02*
G01X811Y12665D01*
G01X811Y13619D02*
G01X1447Y12665D01*
G01X1447Y13619D02*
G01X1447Y12665D01*
G01X1747Y13619D02*
G01X1793Y13574D01*
G01X1838Y13619D01*
G01X1793Y13665D01*
G01X1747Y13619D01*
G01X1793Y13301D02*
G01X1793Y12665D01*
G01X2138Y13301D02*
G01X2138Y12665D01*
G01X2138Y13119D02*
G01X2275Y13256D01*
G01X2366Y13301D01*
G01X2502Y13301D01*
G01X2593Y13256D01*
G01X2638Y13119D01*
G01X2638Y12665D01*
G01X3075Y13619D02*
G01X3075Y12847D01*
G01X3120Y12710D01*
G01X3211Y12665D01*
G01X3302Y12665D01*
G01X2938Y13301D02*
G01X3256Y13301D01*
G01X3602Y13029D02*
G01X4147Y13029D01*
G01X4147Y13119D01*
G01X4102Y13210D01*
G01X4056Y13256D01*
G01X3966Y13301D01*
G01X3829Y13301D01*
G01X3738Y13256D01*
G01X3647Y13165D01*
G01X3602Y13029D01*
G01X3602Y12938D01*
G01X3647Y12801D01*
G01X3738Y12710D01*
G01X3829Y12665D01*
G01X3966Y12665D01*
G01X4056Y12710D01*
G01X4147Y12801D01*
G01X4447Y13301D02*
G01X4447Y12665D01*
G01X4447Y13119D02*
G01X4584Y13256D01*
G01X4675Y13301D01*
G01X4811Y13301D01*
G01X4902Y13256D01*
G01X4947Y13119D01*
G01X4947Y12665D01*
G01X5247Y13619D02*
G01X5247Y12665D01*
G01X5247Y13619D02*
G01X5566Y13619D01*
G01X5702Y13574D01*
G01X5793Y13483D01*
G01X5838Y13392D01*
G01X5884Y13256D01*
G01X5884Y13029D01*
G01X5838Y12892D01*
G01X5793Y12801D01*
G01X5702Y12710D01*
G01X5566Y12665D01*
G01X5247Y12665D01*
G01X6184Y13619D02*
G01X6184Y12938D01*
G01X6229Y12801D01*
G01X6320Y12710D01*
G01X6456Y12665D01*
G01X6547Y12665D01*
G01X6684Y12710D01*
G01X6775Y12801D01*
G01X6820Y12938D01*
G01X6820Y13619D01*
G01X7120Y13619D02*
G01X7120Y12665D01*
G01X7420Y13619D02*
G01X7420Y12665D01*
G01X7420Y13619D02*
G01X8056Y12665D01*
G01X8056Y13619D02*
G01X8056Y12665D01*
G01X8629Y13619D02*
G01X8538Y13574D01*
G01X8447Y13483D01*
G01X8402Y13392D01*
G01X8356Y13256D01*
G01X8356Y13029D01*
G01X8402Y12892D01*
G01X8447Y12801D01*
G01X8538Y12710D01*
G01X8629Y12665D01*
G01X8811Y12665D01*
G01X8902Y12710D01*
G01X8993Y12801D01*
G01X9038Y12892D01*
G01X9084Y13029D01*
G01X9084Y13256D01*
G01X9038Y13392D01*
G01X8993Y13483D01*
G01X8902Y13574D01*
G01X8811Y13619D01*
G01X8629Y13619D01*
G54D24*
G01X33811Y5174D02*
G01X33811Y4696D01*
G01X33811Y5174D02*
G01X34106Y5174D01*
G01X33811Y4946D02*
G01X33993Y4946D01*
G01X34256Y5174D02*
G01X34256Y4696D01*
G01X34679Y5015D02*
G01X34679Y4696D01*
G01X34679Y4946D02*
G01X34634Y4992D01*
G01X34588Y5015D01*
G01X34520Y5015D01*
G01X34475Y4992D01*
G01X34429Y4946D01*
G01X34406Y4878D01*
G01X34406Y4833D01*
G01X34429Y4765D01*
G01X34475Y4719D01*
G01X34520Y4696D01*
G01X34588Y4696D01*
G01X34634Y4719D01*
G01X34679Y4765D01*
G01X35079Y4946D02*
G01X35056Y4992D01*
G01X34988Y5015D01*
G01X34920Y5015D01*
G01X34852Y4992D01*
G01X34829Y4946D01*
G01X34852Y4901D01*
G01X34897Y4878D01*
G01X35011Y4856D01*
G01X35056Y4833D01*
G01X35079Y4787D01*
G01X35079Y4765D01*
G01X35056Y4719D01*
G01X34988Y4696D01*
G01X34920Y4696D01*
G01X34852Y4719D01*
G01X34829Y4765D01*
G01X35229Y5174D02*
G01X35229Y4696D01*
G01X35229Y4924D02*
G01X35297Y4992D01*
G01X35343Y5015D01*
G01X35411Y5015D01*
G01X35456Y4992D01*
G01X35479Y4924D01*
G01X35479Y4696D01*
G01X35970Y5060D02*
G01X35947Y5106D01*
G01X35902Y5151D01*
G01X35856Y5174D01*
G01X35766Y5174D01*
G01X35720Y5151D01*
G01X35675Y5106D01*
G01X35652Y5060D01*
G01X35629Y4992D01*
G01X35629Y4878D01*
G01X35652Y4810D01*
G01X35675Y4765D01*
G01X35720Y4719D01*
G01X35766Y4696D01*
G01X35856Y4696D01*
G01X35902Y4719D01*
G01X35947Y4765D01*
G01X35970Y4810D01*
G01X36393Y5015D02*
G01X36393Y4696D01*
G01X36393Y4946D02*
G01X36347Y4992D01*
G01X36302Y5015D01*
G01X36234Y5015D01*
G01X36188Y4992D01*
G01X36143Y4946D01*
G01X36120Y4878D01*
G01X36120Y4833D01*
G01X36143Y4765D01*
G01X36188Y4719D01*
G01X36234Y4696D01*
G01X36302Y4696D01*
G01X36347Y4719D01*
G01X36393Y4765D01*
G01X36543Y5015D02*
G01X36543Y4696D01*
G01X36543Y4878D02*
G01X36566Y4946D01*
G01X36611Y4992D01*
G01X36656Y5015D01*
G01X36725Y5015D01*
G01X36943Y5174D02*
G01X36943Y4787D01*
G01X36966Y4719D01*
G01X37011Y4696D01*
G01X37056Y4696D01*
G01X36875Y5015D02*
G01X37034Y5015D01*
G01X37556Y5015D02*
G01X37693Y4696D01*
G01X37829Y5015D02*
G01X37693Y4696D01*
G01X38116Y5174D02*
G01X38047Y5151D01*
G01X38002Y5083D01*
G01X37979Y4969D01*
G01X37979Y4901D01*
G01X38002Y4787D01*
G01X38047Y4719D01*
G01X38116Y4696D01*
G01X38161Y4696D01*
G01X38229Y4719D01*
G01X38275Y4787D01*
G01X38297Y4901D01*
G01X38297Y4969D01*
G01X38275Y5083D01*
G01X38229Y5151D01*
G01X38161Y5174D01*
G01X38116Y5174D01*
G01X38470Y4810D02*
G01X38447Y4787D01*
G01X38470Y4765D01*
G01X38493Y4787D01*
G01X38470Y4810D01*
G01X38688Y5174D02*
G01X38938Y5174D01*
G01X38802Y4992D01*
G01X38870Y4992D01*
G01X38916Y4969D01*
G01X38938Y4946D01*
G01X38961Y4878D01*
G01X38961Y4833D01*
G01X38938Y4765D01*
G01X38893Y4719D01*
G01X38825Y4696D01*
G01X38756Y4696D01*
G01X38688Y4719D01*
G01X38666Y4742D01*
G01X38643Y4787D01*
G54D10*
G75*
G01X27881Y10498D02*
G03X27877Y10454I-250J1D01*
G01*
G54D23*
G75*
G01X15512Y9625D02*
G03X15513Y9625I0J-79D01*
G01*
G75*
G01X8812Y9625D02*
G03X8813Y9625I0J-79D01*
G01*
G54D10*
G75*
G01X4192Y8675D02*
G02X3692Y8675I-250J0D01*
G01*
G75*
G01X38902Y6670D02*
G03X38902Y6670I-591J0D01*
G01*
G75*
G01X3167Y8765D02*
G03X3167Y8765I-75J0D01*
G01*
M00*
M02*
