G04 Layer: BottomPasteMaskLayer*
G04 EasyEDA v5.9.42, Mon, 13 May 2019 22:36:32 GMT*
G04 18fdc59d78804919a667ee1bdc29a187*
G04 Gerber Generator version 0.2*
G04 Scale: 100 percent, Rotated: No, Reflected: No *
G04 Dimensions in inches *
G04 leading zeros omitted , absolute positions ,2 integer and 4 decimal *
%FSLAX24Y24*%
%MOIN*%
G90*
G70D02*

%ADD17R,0.039400X0.031500*%
%ADD18R,0.027600X0.059100*%

%LPD*%
G54D17*
G01X33971Y4245D03*
G01X33971Y5105D03*
G01X31051Y5105D03*
G01X31051Y4245D03*
G54D18*
G01X33401Y5415D03*
G01X32211Y5415D03*
G01X31621Y5415D03*
G36*
G01X30167Y2981D02*
G01X30856Y2981D01*
G01X30856Y166D01*
G01X30167Y166D01*
G01X30167Y2981D01*
G37*
G36*
G01X29182Y2981D02*
G01X29871Y2981D01*
G01X29871Y166D01*
G01X29182Y166D01*
G01X29182Y2981D01*
G37*
G36*
G01X28198Y2981D02*
G01X28887Y2981D01*
G01X28887Y166D01*
G01X28198Y166D01*
G01X28198Y2981D01*
G37*
G36*
G01X27214Y2981D02*
G01X27903Y2981D01*
G01X27903Y166D01*
G01X27214Y166D01*
G01X27214Y2981D01*
G37*
G36*
G01X26230Y2981D02*
G01X26919Y2981D01*
G01X26919Y166D01*
G01X26230Y166D01*
G01X26230Y2981D01*
G37*
G36*
G01X25245Y2981D02*
G01X25934Y2981D01*
G01X25934Y166D01*
G01X25245Y166D01*
G01X25245Y2981D01*
G37*
G36*
G01X24261Y2981D02*
G01X24950Y2981D01*
G01X24950Y166D01*
G01X24261Y166D01*
G01X24261Y2981D01*
G37*
G36*
G01X23277Y2981D02*
G01X23966Y2981D01*
G01X23966Y166D01*
G01X23277Y166D01*
G01X23277Y2981D01*
G37*
G36*
G01X22293Y2981D02*
G01X22982Y2981D01*
G01X22982Y166D01*
G01X22293Y166D01*
G01X22293Y2981D01*
G37*
G36*
G01X21308Y2981D02*
G01X21997Y2981D01*
G01X21997Y166D01*
G01X21308Y166D01*
G01X21308Y2981D01*
G37*
G36*
G01X20324Y2981D02*
G01X21013Y2981D01*
G01X21013Y166D01*
G01X20324Y166D01*
G01X20324Y2981D01*
G37*
G36*
G01X19340Y2981D02*
G01X20029Y2981D01*
G01X20029Y166D01*
G01X19340Y166D01*
G01X19340Y2981D01*
G37*
G36*
G01X18356Y2981D02*
G01X19045Y2981D01*
G01X19045Y166D01*
G01X18356Y166D01*
G01X18356Y2981D01*
G37*
G36*
G01X17371Y2981D02*
G01X18060Y2981D01*
G01X18060Y166D01*
G01X17371Y166D01*
G01X17371Y2981D01*
G37*
G36*
G01X16387Y2981D02*
G01X17076Y2981D01*
G01X17076Y166D01*
G01X16387Y166D01*
G01X16387Y2981D01*
G37*
G36*
G01X15403Y2981D02*
G01X16092Y2981D01*
G01X16092Y166D01*
G01X15403Y166D01*
G01X15403Y2981D01*
G37*
G36*
G01X14419Y2981D02*
G01X15108Y2981D01*
G01X15108Y166D01*
G01X14419Y166D01*
G01X14419Y2981D01*
G37*
G36*
G01X13434Y2981D02*
G01X14123Y2981D01*
G01X14123Y166D01*
G01X13434Y166D01*
G01X13434Y2981D01*
G37*
G36*
G01X12450Y2981D02*
G01X13139Y2981D01*
G01X13139Y166D01*
G01X12450Y166D01*
G01X12450Y2981D01*
G37*
G36*
G01X11466Y2981D02*
G01X12155Y2981D01*
G01X12155Y166D01*
G01X11466Y166D01*
G01X11466Y2981D01*
G37*
G36*
G01X10482Y2981D02*
G01X11171Y2981D01*
G01X11171Y166D01*
G01X10482Y166D01*
G01X10482Y2981D01*
G37*
G36*
G01X9497Y2981D02*
G01X10186Y2981D01*
G01X10186Y166D01*
G01X9497Y166D01*
G01X9497Y2981D01*
G37*
G36*
G01X8513Y2981D02*
G01X9202Y2981D01*
G01X9202Y166D01*
G01X8513Y166D01*
G01X8513Y2981D01*
G37*
M00*
M02*
