G04 Layer: TopSolderMaskLayer*
G04 EasyEDA v5.9.42, Mon, 13 May 2019 22:36:32 GMT*
G04 18fdc59d78804919a667ee1bdc29a187*
G04 Gerber Generator version 0.2*
G04 Scale: 100 percent, Rotated: No, Reflected: No *
G04 Dimensions in inches *
G04 leading zeros omitted , absolute positions ,2 integer and 4 decimal *
%FSLAX24Y24*%
%MOIN*%
G90*
G70D02*

%ADD25C,0.031622*%
%ADD26C,0.035559*%
%ADD27R,0.035560X0.015870*%
%ADD28C,0.047370*%
%ADD29C,0.053000*%
%ADD30R,0.047400X0.039500*%
%ADD31R,0.035600X0.067100*%
%ADD32C,0.038000*%

%LPD*%
G54D25*
G01X19351Y11458D02*
G01X19351Y11931D01*
G01X18851Y11458D02*
G01X18851Y11931D01*
G01X18351Y11458D02*
G01X18351Y11931D01*
G01X17851Y11458D02*
G01X17851Y11931D01*
G01X17351Y11458D02*
G01X17351Y11931D01*
G01X16851Y11458D02*
G01X16851Y11931D01*
G01X16351Y11458D02*
G01X16351Y11931D01*
G01X15851Y11458D02*
G01X15851Y11931D01*
G01X19351Y9118D02*
G01X19351Y9591D01*
G01X18851Y9118D02*
G01X18851Y9591D01*
G01X18351Y9118D02*
G01X18351Y9591D01*
G01X17851Y9118D02*
G01X17851Y9591D01*
G01X17351Y9118D02*
G01X17351Y9591D01*
G01X16851Y9118D02*
G01X16851Y9591D01*
G01X16351Y9118D02*
G01X16351Y9591D01*
G01X15851Y9118D02*
G01X15851Y9591D01*
G01X12651Y11458D02*
G01X12651Y11931D01*
G01X12151Y11458D02*
G01X12151Y11931D01*
G01X11651Y11458D02*
G01X11651Y11931D01*
G01X11151Y11458D02*
G01X11151Y11931D01*
G01X10651Y11458D02*
G01X10651Y11931D01*
G01X10151Y11458D02*
G01X10151Y11931D01*
G01X9651Y11458D02*
G01X9651Y11931D01*
G01X9151Y11458D02*
G01X9151Y11931D01*
G01X12651Y9118D02*
G01X12651Y9591D01*
G01X12151Y9118D02*
G01X12151Y9591D01*
G01X11651Y9118D02*
G01X11651Y9591D01*
G01X11151Y9118D02*
G01X11151Y9591D01*
G01X10651Y9118D02*
G01X10651Y9591D01*
G01X10151Y9118D02*
G01X10151Y9591D01*
G01X9651Y9118D02*
G01X9651Y9591D01*
G01X9151Y9118D02*
G01X9151Y9591D01*
G54D26*
G01X2466Y8474D02*
G01X3056Y8474D01*
G01X2466Y7974D02*
G01X3056Y7974D01*
G01X2466Y7474D02*
G01X3056Y7474D01*
G01X2466Y6974D02*
G01X3056Y6974D01*
G01X4846Y8474D02*
G01X5436Y8474D01*
G01X4846Y7974D02*
G01X5436Y7974D01*
G01X4846Y7474D02*
G01X5436Y7474D01*
G01X4846Y6974D02*
G01X5436Y6974D01*
G54D27*
G01X26811Y10974D03*
G01X26811Y10778D03*
G01X26811Y10581D03*
G01X26811Y10384D03*
G01X26811Y10187D03*
G01X26811Y9990D03*
G01X26811Y9793D03*
G01X26811Y9596D03*
G01X26811Y9400D03*
G01X26811Y9203D03*
G01X26811Y9006D03*
G01X26811Y8809D03*
G01X26811Y8612D03*
G01X26811Y8415D03*
G01X26811Y8218D03*
G01X26811Y8022D03*
G01X26811Y7825D03*
G01X26811Y7628D03*
G01X26811Y7431D03*
G01X26811Y7234D03*
G01X34646Y7234D03*
G01X34646Y7431D03*
G01X34646Y7628D03*
G01X34646Y7825D03*
G01X34646Y8022D03*
G01X34646Y8218D03*
G01X34646Y8415D03*
G01X34646Y8612D03*
G01X34646Y8809D03*
G01X34646Y9006D03*
G01X34646Y9203D03*
G01X34646Y9400D03*
G01X34646Y9596D03*
G01X34646Y9793D03*
G01X34646Y9990D03*
G01X34646Y10187D03*
G01X34646Y10384D03*
G01X34646Y10581D03*
G01X34646Y10778D03*
G01X34646Y10974D03*
G36*
G01X30127Y126D02*
G01X30127Y3021D01*
G01X30896Y3021D01*
G01X30896Y126D01*
G01X30127Y126D01*
G37*
G36*
G01X29142Y126D02*
G01X29142Y3021D01*
G01X29911Y3021D01*
G01X29911Y126D01*
G01X29142Y126D01*
G37*
G36*
G01X28158Y126D02*
G01X28158Y3021D01*
G01X28927Y3021D01*
G01X28927Y126D01*
G01X28158Y126D01*
G37*
G36*
G01X27174Y126D02*
G01X27174Y3021D01*
G01X27943Y3021D01*
G01X27943Y126D01*
G01X27174Y126D01*
G37*
G36*
G01X26190Y126D02*
G01X26190Y3021D01*
G01X26959Y3021D01*
G01X26959Y126D01*
G01X26190Y126D01*
G37*
G36*
G01X25205Y126D02*
G01X25205Y3021D01*
G01X25974Y3021D01*
G01X25974Y126D01*
G01X25205Y126D01*
G37*
G36*
G01X24221Y126D02*
G01X24221Y3021D01*
G01X24990Y3021D01*
G01X24990Y126D01*
G01X24221Y126D01*
G37*
G36*
G01X23237Y126D02*
G01X23237Y3021D01*
G01X24006Y3021D01*
G01X24006Y126D01*
G01X23237Y126D01*
G37*
G36*
G01X22253Y126D02*
G01X22253Y3021D01*
G01X23022Y3021D01*
G01X23022Y126D01*
G01X22253Y126D01*
G37*
G36*
G01X21268Y126D02*
G01X21268Y3021D01*
G01X22037Y3021D01*
G01X22037Y126D01*
G01X21268Y126D01*
G37*
G36*
G01X20284Y126D02*
G01X20284Y3021D01*
G01X21053Y3021D01*
G01X21053Y126D01*
G01X20284Y126D01*
G37*
G36*
G01X19300Y126D02*
G01X19300Y3021D01*
G01X20069Y3021D01*
G01X20069Y126D01*
G01X19300Y126D01*
G37*
G36*
G01X18316Y126D02*
G01X18316Y3021D01*
G01X19085Y3021D01*
G01X19085Y126D01*
G01X18316Y126D01*
G37*
G36*
G01X17331Y126D02*
G01X17331Y3021D01*
G01X18100Y3021D01*
G01X18100Y126D01*
G01X17331Y126D01*
G37*
G36*
G01X16347Y126D02*
G01X16347Y3021D01*
G01X17116Y3021D01*
G01X17116Y126D01*
G01X16347Y126D01*
G37*
G36*
G01X15363Y126D02*
G01X15363Y3021D01*
G01X16132Y3021D01*
G01X16132Y126D01*
G01X15363Y126D01*
G37*
G36*
G01X14379Y126D02*
G01X14379Y3021D01*
G01X15148Y3021D01*
G01X15148Y126D01*
G01X14379Y126D01*
G37*
G36*
G01X13394Y126D02*
G01X13394Y3021D01*
G01X14163Y3021D01*
G01X14163Y126D01*
G01X13394Y126D01*
G37*
G36*
G01X12410Y126D02*
G01X12410Y3021D01*
G01X13179Y3021D01*
G01X13179Y126D01*
G01X12410Y126D01*
G37*
G36*
G01X11426Y126D02*
G01X11426Y3021D01*
G01X12195Y3021D01*
G01X12195Y126D01*
G01X11426Y126D01*
G37*
G36*
G01X10442Y126D02*
G01X10442Y3021D01*
G01X11211Y3021D01*
G01X11211Y126D01*
G01X10442Y126D01*
G37*
G36*
G01X9457Y126D02*
G01X9457Y3021D01*
G01X10226Y3021D01*
G01X10226Y126D01*
G01X9457Y126D01*
G37*
G36*
G01X8473Y126D02*
G01X8473Y3021D01*
G01X9242Y3021D01*
G01X9242Y126D01*
G01X8473Y126D01*
G37*
G54D28*
G01X38311Y6374D03*
G01X38311Y6965D03*
G54D29*
G01X3411Y10674D03*
G01X4411Y10674D03*
G54D30*
G01X37071Y14204D03*
G01X37071Y13344D03*
G01X34151Y13344D03*
G01X34151Y14204D03*
G54D31*
G01X36501Y13034D03*
G01X35311Y13034D03*
G01X34721Y13034D03*
G54D32*
G01X35011Y13674D03*
G01X36211Y13674D03*
G01X31911Y4774D03*
G01X33111Y4774D03*
M00*
M02*
